<svg width="30" height="30" viewBox="0 0 30 30" fill="none" xmlns="http://www.w3.org/2000/svg">
<path d="M3.33333 13.3333C2.41667 13.3333 1.63167 13.0067 0.978333 12.3533C0.326111 11.7011 0 10.9167 0 10V3.33333C0 2.41667 0.326111 1.63167 0.978333 0.978333C1.63167 0.326111 2.41667 0 3.33333 0H10C10.9167 0 11.7017 0.326111 12.355 0.978333C13.0072 1.63167 13.3333 2.41667 13.3333 3.33333V10C13.3333 10.9167 13.0072 11.7011 12.355 12.3533C11.7017 13.0067 10.9167 13.3333 10 13.3333H3.33333ZM3.33333 30C2.41667 30 1.63167 29.6739 0.978333 29.0217C0.326111 28.3683 0 27.5833 0 26.6667V20C0 19.0833 0.326111 18.2983 0.978333 17.645C1.63167 16.9928 2.41667 16.6667 3.33333 16.6667H10C10.9167 16.6667 11.7017 16.9928 12.355 17.645C13.0072 18.2983 13.3333 19.0833 13.3333 20V26.6667C13.3333 27.5833 13.0072 28.3683 12.355 29.0217C11.7017 29.6739 10.9167 30 10 30H3.33333ZM20 13.3333C19.0833 13.3333 18.2989 13.0067 17.6467 12.3533C16.9933 11.7011 16.6667 10.9167 16.6667 10V3.33333C16.6667 2.41667 16.9933 1.63167 17.6467 0.978333C18.2989 0.326111 19.0833 0 20 0H26.6667C27.5833 0 28.3683 0.326111 29.0217 0.978333C29.6739 1.63167 30 2.41667 30 3.33333V10C30 10.9167 29.6739 11.7011 29.0217 12.3533C28.3683 13.0067 27.5833 13.3333 26.6667 13.3333H20ZM20 30C19.0833 30 18.2989 29.6739 17.6467 29.0217C16.9933 28.3683 16.6667 27.5833 16.6667 26.6667V20C16.6667 19.0833 16.9933 18.2983 17.6467 17.645C18.2989 16.9928 19.0833 16.6667 20 16.6667H26.6667C27.5833 16.6667 28.3683 16.9928 29.0217 17.645C29.6739 18.2983 30 19.0833 30 20V26.6667C30 27.5833 29.6739 28.3683 29.0217 29.0217C28.3683 29.6739 27.5833 30 26.6667 30H20Z" fill="black"/>
</svg>
