<svg width="40" height="40" viewBox="0 0 40 40" fill="none" xmlns="http://www.w3.org/2000/svg">
<path d="M33.75 6.5625H6.25C5.66984 6.5625 5.11344 6.79297 4.7032 7.2032C4.29297 7.61344 4.0625 8.16984 4.0625 8.75V31.25C4.0625 31.8302 4.29297 32.3866 4.7032 32.7968C5.11344 33.207 5.66984 33.4375 6.25 33.4375H8.34375C8.52012 33.4373 8.69285 33.3873 8.84211 33.2933C8.99136 33.1994 9.11107 33.0652 9.1875 32.9062C9.82022 31.5684 10.8199 30.4378 12.0702 29.646C13.3206 28.8542 14.7701 28.4338 16.25 28.4338C17.7299 28.4338 19.1794 28.8542 20.4298 29.646C21.6801 30.4378 22.6798 31.5684 23.3125 32.9062C23.3889 33.0652 23.5086 33.1994 23.6579 33.2933C23.8071 33.3873 23.9799 33.4373 24.1562 33.4375H33.75C34.3302 33.4375 34.8866 33.207 35.2968 32.7968C35.707 32.3866 35.9375 31.8302 35.9375 31.25V8.75C35.9375 8.16984 35.707 7.61344 35.2968 7.2032C34.8866 6.79297 34.3302 6.5625 33.75 6.5625ZM12.1875 22.5C12.1875 21.6965 12.4258 20.9111 12.8722 20.243C13.3185 19.5749 13.953 19.0542 14.6953 18.7467C15.4377 18.4393 16.2545 18.3588 17.0426 18.5156C17.8306 18.6723 18.5545 19.0592 19.1226 19.6274C19.6908 20.1955 20.0777 20.9194 20.2344 21.7074C20.3912 22.4955 20.3107 23.3123 20.0033 24.0547C19.6958 24.797 19.1751 25.4315 18.507 25.8778C17.8389 26.3242 17.0535 26.5625 16.25 26.5625C15.1738 26.5584 14.1429 26.1291 13.3819 25.3681C12.6209 24.6071 12.1916 23.5762 12.1875 22.5ZM34.0625 31.25C34.0625 31.3329 34.0296 31.4124 33.971 31.471C33.9124 31.5296 33.8329 31.5625 33.75 31.5625H24.7344C23.6406 29.6001 21.9016 28.0765 19.8125 27.25C20.8094 26.5023 21.5459 25.4599 21.9174 24.2704C22.289 23.0809 22.2769 21.8046 21.8828 20.6224C21.4887 19.4402 20.7327 18.4119 19.7217 17.6832C18.7108 16.9546 17.4962 16.5625 16.25 16.5625C15.0038 16.5625 13.7892 16.9546 12.7783 17.6832C11.7673 18.4119 11.0113 19.4402 10.6172 20.6224C10.2231 21.8046 10.211 23.0809 10.5826 24.2704C10.9541 25.4599 11.6906 26.5023 12.6875 27.25C10.5984 28.0765 8.85944 29.6001 7.76562 31.5625H6.25C6.16835 31.5587 6.09105 31.5245 6.03325 31.4667C5.97545 31.4089 5.9413 31.3317 5.9375 31.25V8.75C5.9375 8.66712 5.97042 8.58763 6.02903 8.52903C6.08763 8.47042 6.16712 8.4375 6.25 8.4375H33.75C33.8329 8.4375 33.9124 8.47042 33.971 8.52903C34.0296 8.58763 34.0625 8.66712 34.0625 8.75V31.25ZM30.9375 12.5V27.5C30.9375 27.7486 30.8387 27.9871 30.6629 28.1629C30.4871 28.3387 30.2486 28.4375 30 28.4375H27.5C27.2514 28.4375 27.0129 28.3387 26.8371 28.1629C26.6613 27.9871 26.5625 27.7486 26.5625 27.5C26.5625 27.2514 26.6613 27.0129 26.8371 26.8371C27.0129 26.6613 27.2514 26.5625 27.5 26.5625H29.0625V13.4375H10.9375V15C10.9375 15.2486 10.8387 15.4871 10.6629 15.6629C10.4871 15.8387 10.2486 15.9375 10 15.9375C9.75136 15.9375 9.5129 15.8387 9.33709 15.6629C9.16127 15.4871 9.0625 15.2486 9.0625 15V12.5C9.0625 12.2514 9.16127 12.0129 9.33709 11.8371C9.5129 11.6613 9.75136 11.5625 10 11.5625H30C30.2486 11.5625 30.4871 11.6613 30.6629 11.8371C30.8387 12.0129 30.9375 12.2514 30.9375 12.5Z" fill="#3D3D3D"/>
</svg>
