<svg width="40" height="40" viewBox="0 0 40 40" fill="none" xmlns="http://www.w3.org/2000/svg">
<path d="M20 23.3334C20.3296 23.3334 20.6519 23.2356 20.9259 23.0525C21.2 22.8694 21.4136 22.6091 21.5398 22.3045C21.6659 22 21.6989 21.6649 21.6346 21.3416C21.5703 21.0183 21.4116 20.7213 21.1785 20.4882C20.9454 20.2551 20.6484 20.0964 20.3251 20.0321C20.0018 19.9678 19.6667 20.0008 19.3622 20.1269C19.0576 20.2531 18.7973 20.4667 18.6142 20.7408C18.4311 21.0148 18.3333 21.3371 18.3333 21.6667C18.3333 22.1087 18.5089 22.5327 18.8215 22.8452C19.134 23.1578 19.558 23.3334 20 23.3334ZM28.3333 23.3334C28.663 23.3334 28.9852 23.2356 29.2593 23.0525C29.5334 22.8694 29.747 22.6091 29.8731 22.3045C29.9993 22 30.0323 21.6649 29.968 21.3416C29.9037 21.0183 29.7449 20.7213 29.5118 20.4882C29.2788 20.2551 28.9818 20.0964 28.6585 20.0321C28.3352 19.9678 28.0001 20.0008 27.6955 20.1269C27.391 20.2531 27.1307 20.4667 26.9475 20.7408C26.7644 21.0148 26.6667 21.3371 26.6667 21.6667C26.6667 22.1087 26.8423 22.5327 27.1548 22.8452C27.4674 23.1578 27.8913 23.3334 28.3333 23.3334ZM20 30C20.3296 30 20.6519 29.9023 20.9259 29.7192C21.2 29.536 21.4136 29.2757 21.5398 28.9712C21.6659 28.6666 21.6989 28.3315 21.6346 28.0082C21.5703 27.6849 21.4116 27.3879 21.1785 27.1549C20.9454 26.9218 20.6484 26.763 20.3251 26.6987C20.0018 26.6344 19.6667 26.6674 19.3622 26.7936C19.0576 26.9197 18.7973 27.1333 18.6142 27.4074C18.4311 27.6815 18.3333 28.0037 18.3333 28.3334C18.3333 28.7754 18.5089 29.1993 18.8215 29.5119C19.134 29.8244 19.558 30 20 30ZM28.3333 30C28.663 30 28.9852 29.9023 29.2593 29.7192C29.5334 29.536 29.747 29.2757 29.8731 28.9712C29.9993 28.6666 30.0323 28.3315 29.968 28.0082C29.9037 27.6849 29.7449 27.3879 29.5118 27.1549C29.2788 26.9218 28.9818 26.763 28.6585 26.6987C28.3352 26.6344 28.0001 26.6674 27.6955 26.7936C27.391 26.9197 27.1307 27.1333 26.9475 27.4074C26.7644 27.6815 26.6667 28.0037 26.6667 28.3334C26.6667 28.7754 26.8423 29.1993 27.1548 29.5119C27.4674 29.8244 27.8913 30 28.3333 30ZM11.6667 23.3334C11.9963 23.3334 12.3185 23.2356 12.5926 23.0525C12.8667 22.8694 13.0803 22.6091 13.2065 22.3045C13.3326 22 13.3656 21.6649 13.3013 21.3416C13.237 21.0183 13.0783 20.7213 12.8452 20.4882C12.6121 20.2551 12.3151 20.0964 11.9918 20.0321C11.6685 19.9678 11.3334 20.0008 11.0289 20.1269C10.7243 20.2531 10.464 20.4667 10.2809 20.7408C10.0977 21.0148 9.99999 21.3371 9.99999 21.6667C9.99999 22.1087 10.1756 22.5327 10.4882 22.8452C10.8007 23.1578 11.2246 23.3334 11.6667 23.3334ZM31.6667 6.66671H30V5.00004C30 4.55801 29.8244 4.13409 29.5118 3.82153C29.1993 3.50897 28.7754 3.33337 28.3333 3.33337C27.8913 3.33337 27.4674 3.50897 27.1548 3.82153C26.8423 4.13409 26.6667 4.55801 26.6667 5.00004V6.66671H13.3333V5.00004C13.3333 4.55801 13.1577 4.13409 12.8452 3.82153C12.5326 3.50897 12.1087 3.33337 11.6667 3.33337C11.2246 3.33337 10.8007 3.50897 10.4882 3.82153C10.1756 4.13409 9.99999 4.55801 9.99999 5.00004V6.66671H8.33333C7.00725 6.66671 5.73548 7.19349 4.79779 8.13117C3.86011 9.06886 3.33333 10.3406 3.33333 11.6667V31.6667C3.33333 32.9928 3.86011 34.2646 4.79779 35.2022C5.73548 36.1399 7.00725 36.6667 8.33333 36.6667H31.6667C32.9927 36.6667 34.2645 36.1399 35.2022 35.2022C36.1399 34.2646 36.6667 32.9928 36.6667 31.6667V11.6667C36.6667 10.3406 36.1399 9.06886 35.2022 8.13117C34.2645 7.19349 32.9927 6.66671 31.6667 6.66671ZM33.3333 31.6667C33.3333 32.1087 33.1577 32.5327 32.8452 32.8452C32.5326 33.1578 32.1087 33.3334 31.6667 33.3334H8.33333C7.8913 33.3334 7.46738 33.1578 7.15482 32.8452C6.84226 32.5327 6.66666 32.1087 6.66666 31.6667V16.6667H33.3333V31.6667ZM33.3333 13.3334H6.66666V11.6667C6.66666 11.2247 6.84226 10.8008 7.15482 10.4882C7.46738 10.1756 7.8913 10 8.33333 10H31.6667C32.1087 10 32.5326 10.1756 32.8452 10.4882C33.1577 10.8008 33.3333 11.2247 33.3333 11.6667V13.3334ZM11.6667 30C11.9963 30 12.3185 29.9023 12.5926 29.7192C12.8667 29.536 13.0803 29.2757 13.2065 28.9712C13.3326 28.6666 13.3656 28.3315 13.3013 28.0082C13.237 27.6849 13.0783 27.3879 12.8452 27.1549C12.6121 26.9218 12.3151 26.763 11.9918 26.6987C11.6685 26.6344 11.3334 26.6674 11.0289 26.7936C10.7243 26.9197 10.464 27.1333 10.2809 27.4074C10.0977 27.6815 9.99999 28.0037 9.99999 28.3334C9.99999 28.7754 10.1756 29.1993 10.4882 29.5119C10.8007 29.8244 11.2246 30 11.6667 30Z" fill="#3D3D3D"/>
</svg>
